# 3ds Max Wavefront OBJ Exporter v0.97b - (c)2007 guruware
# File Created: 08.05.2020 12:05:47

mtllib arrow.mtl

#
# object Line001
#

v  0.0015 0.0000 84.0340
v  39.7717 0.0000 84.0340
v  39.7717 7.5000 84.0340
v  0.0015 7.5000 84.0340
v  18.1390 0.0000 93.2857
v  18.1390 7.5000 93.2857
v  18.0176 0.0309 93.6057
v  18.0176 7.5309 93.6057
v  17.8657 0.0663 93.9412
v  17.8657 7.5663 93.9412
v  17.7063 0.1028 94.2806
v  17.7063 7.6028 94.2806
v  17.5620 0.1371 94.6122
v  17.5620 7.6371 94.6122
v  17.4558 0.1658 94.9246
v  17.4558 7.6658 94.9246
v  17.4103 0.1854 95.2060
v  17.4103 7.6854 95.2060
v  17.4484 0.1927 95.4449
v  17.4484 7.6927 95.4449
v  17.5852 0.1854 95.6336
v  17.5852 7.6854 95.6336
v  17.8056 0.1658 95.7797
v  17.8056 7.6658 95.7797
v  18.0868 0.1371 95.8950
v  18.0868 7.6371 95.8950
v  18.4060 0.1028 95.9910
v  18.4060 7.6028 95.9910
v  18.7404 0.0663 96.0792
v  18.7404 7.5663 96.0792
v  19.0671 0.0309 96.1713
v  19.0671 7.5309 96.1713
v  19.3635 0.0000 96.2789
v  19.3635 7.5000 96.2789
v  49.4315 0.0000 83.8181
v  49.4315 7.5000 83.8181
v  49.5730 0.0000 83.6894
v  49.5730 7.5000 83.6894
v  49.7259 0.0000 83.5731
v  49.7259 7.5000 83.5731
v  49.8817 0.0000 83.4598
v  49.8817 7.5000 83.4598
v  50.0317 0.0000 83.3404
v  50.0317 7.5000 83.3404
v  50.1675 0.0000 83.2055
v  50.1675 7.5000 83.2055
v  50.2805 0.0000 83.0458
v  50.2805 7.5000 83.0458
v  50.3621 0.0000 82.8521
v  50.3621 7.5000 82.8521
v  50.4140 0.0000 82.6074
v  50.4140 7.5000 82.6074
v  50.4442 0.0000 82.3141
v  50.4442 7.5000 82.3141
v  50.4541 0.0000 81.9925
v  50.4541 7.5000 81.9925
v  50.4448 0.0000 81.6627
v  50.4448 7.5000 81.6627
v  50.4177 0.0000 81.3447
v  50.4177 7.5000 81.3447
v  50.3739 0.0000 81.0587
v  50.3739 7.5000 81.0587
v  50.3147 0.0000 80.8249
v  50.3147 7.5000 80.8249
v  50.2324 0.0000 80.6472
v  50.2324 7.5000 80.6472
v  50.1233 0.0000 80.5093
v  50.1233 7.5000 80.5093
v  49.9947 0.0000 80.4003
v  49.9947 7.5000 80.4003
v  49.8539 0.0000 80.3094
v  49.8539 7.5000 80.3094
v  49.7082 0.0000 80.2257
v  49.7082 7.5000 80.2257
v  49.5650 0.0000 80.1384
v  49.5650 7.5000 80.1384
v  49.4315 0.0000 80.0366
v  49.4315 7.5000 80.0366
v  19.2704 0.0000 67.2993
v  19.2704 7.5000 67.2993
v  18.9462 0.0000 67.4201
v  18.9462 7.5000 67.4201
v  18.5877 0.0000 67.5259
v  18.5877 7.5000 67.5259
v  18.2206 0.0000 67.6280
v  18.2206 7.5000 67.6280
v  17.8707 0.0000 67.7376
v  17.8707 7.5000 67.7376
v  17.5638 0.0000 67.8658
v  17.5638 7.5000 67.8658
v  17.3257 0.0000 68.0239
v  17.3257 7.5000 68.0239
v  17.1823 0.0000 68.2232
v  17.1823 7.5000 68.2232
v  17.1508 0.0000 68.4710
v  17.1508 7.5000 68.4710
v  17.2139 0.0000 68.7599
v  17.2139 7.5000 68.7599
v  17.3459 0.0000 69.0787
v  17.3459 7.5000 69.0787
v  17.5209 0.0000 69.4161
v  17.5209 7.5000 69.4161
v  17.7131 0.0000 69.7611
v  17.7131 7.5000 69.7611
v  17.8967 0.0000 70.1023
v  17.8967 7.5000 70.1023
v  18.0459 0.0000 70.4286
v  18.0459 7.5000 70.4286
v  39.9077 0.0000 79.9524
v  39.9077 7.5000 79.9524
v  0.0438 0.0000 79.9524
v  0.0438 7.5000 79.9524
# 112 vertices

vn -0.5805 -0.5768 0.5747
vn -0.1045 -0.9943 0.0229
vn -0.1044 0.9943 0.0199
vn -0.5805 0.5768 0.5747
vn -0.5490 -0.6734 -0.4951
vn -0.5734 0.5812 -0.5774
vn -0.6400 -0.7454 -0.1866
vn -0.6537 0.6743 -0.3434
vn -0.6353 -0.7423 -0.2129
vn -0.6472 0.6663 -0.3704
vn -0.6425 -0.7355 -0.2150
vn -0.6530 0.6643 -0.3637
vn -0.6638 -0.7231 -0.1911
vn -0.6727 0.6667 -0.3208
vn -0.7004 -0.7027 -0.1250
vn -0.7070 0.6711 -0.2233
vn -0.7395 -0.6727 0.0255
vn -0.7397 0.6724 -0.0271
vn -0.7038 -0.6483 0.2904
vn -0.6870 0.6681 0.2859
vn -0.5363 -0.6664 0.5180
vn -0.4924 0.6706 0.5549
vn -0.3806 -0.6968 0.6079
vn -0.3028 0.6704 0.6774
vn -0.2935 -0.7187 0.6303
vn -0.1902 0.6672 0.7202
vn -0.2555 -0.7322 0.6314
vn -0.1368 0.6656 0.7337
vn -0.2518 -0.7398 0.6240
vn -0.1263 0.6685 0.7329
vn -0.2755 -0.7448 0.6078
vn -0.1587 0.6771 0.7185
vn -0.0095 -0.6855 0.7281
vn 0.0400 0.5786 0.8146
vn 0.3975 -0.6705 0.6265
vn 0.3976 0.6704 0.6264
vn 0.4459 -0.7171 0.5356
vn 0.4459 0.7171 0.5356
vn 0.4206 -0.7096 0.5654
vn 0.4206 0.7096 0.5654
vn 0.4311 -0.7022 0.5666
vn 0.4311 0.7022 0.5666
vn 0.4780 -0.6950 0.5372
vn 0.4780 0.6950 0.5372
vn 0.5539 -0.6882 0.4687
vn 0.5539 0.6882 0.4687
vn 0.6380 -0.6836 0.3546
vn 0.6380 0.6836 0.3546
vn 0.6939 -0.6864 0.2175
vn 0.6939 0.6864 0.2175
vn 0.7099 -0.6954 0.1115
vn 0.7099 0.6954 0.1115
vn 0.7134 -0.6991 0.0477
vn 0.7134 0.6991 0.0477
vn 0.7136 -0.7006 0.0009
vn 0.7136 0.7006 0.0009
vn 0.7122 -0.7008 -0.0404
vn 0.7122 0.7008 -0.0404
vn 0.7094 -0.6997 -0.0845
vn 0.7094 0.6997 -0.0845
vn 0.7033 -0.6965 -0.1425
vn 0.7033 0.6965 -0.1425
vn 0.6850 -0.6868 -0.2430
vn 0.6850 0.6868 -0.2430
vn 0.6232 -0.6816 -0.3835
vn 0.6232 0.6816 -0.3835
vn 0.5234 -0.6855 -0.5061
vn 0.5234 0.6855 -0.5061
vn 0.4296 -0.6928 -0.5791
vn 0.4296 0.6928 -0.5791
vn 0.3711 -0.7014 -0.6086
vn 0.3711 0.7014 -0.6086
vn 0.3587 -0.7101 -0.6059
vn 0.3587 0.7101 -0.6059
vn 0.3921 -0.7190 -0.5738
vn 0.3921 0.7190 -0.5738
vn 0.3679 -0.6799 -0.6344
vn 0.3679 0.6799 -0.6344
vn 0.0166 -0.6327 -0.7742
vn 0.0166 0.6327 -0.7742
vn -0.2211 -0.7150 -0.6632
vn -0.2211 0.7150 -0.6632
vn -0.1943 -0.7089 -0.6780
vn -0.1943 0.7089 -0.6780
vn -0.2014 -0.7035 -0.6816
vn -0.2014 0.7035 -0.6816
vn -0.2457 -0.6969 -0.6738
vn -0.2457 0.6969 -0.6738
vn -0.3430 -0.6863 -0.6414
vn -0.3430 0.6863 -0.6414
vn -0.5157 -0.6689 -0.5354
vn -0.5157 0.6689 -0.5354
vn -0.7025 -0.6557 -0.2767
vn -0.7025 0.6557 -0.2767
vn -0.7409 -0.6708 0.0328
vn -0.7409 0.6708 0.0328
vn -0.6927 -0.6877 0.2172
vn -0.6927 0.6877 0.2172
vn -0.6496 -0.6976 0.3022
vn -0.6496 0.6976 0.3022
vn -0.6257 -0.7038 0.3364
vn -0.6257 0.7038 0.3364
vn -0.6187 -0.7088 0.3388
vn -0.6187 0.7088 0.3388
vn -0.6265 -0.7145 0.3114
vn -0.6265 0.7145 0.3114
vn -0.5414 -0.6348 0.5513
vn -0.5414 0.6348 0.5513
vn -0.1062 -0.9941 -0.0221
vn -0.1062 0.9941 -0.0221
vn -0.5740 -0.5779 -0.5801
vn -0.5740 0.5779 -0.5801
# 112 vertex normals

o Line001
g Line001
usemtl wire_138008110
f 1//1 2//2 3//3 4//4 
f 2//2 5//5 6//6 3//3 
f 5//5 7//7 8//8 6//6 
f 7//7 9//9 10//10 8//8 
f 9//9 11//11 12//12 10//10 
f 11//11 13//13 14//14 12//12 
f 13//13 15//15 16//16 14//14 
f 15//15 17//17 18//18 16//16 
f 17//17 19//19 20//20 18//18 
f 19//19 21//21 22//22 20//20 
f 21//21 23//23 24//24 22//22 
f 23//23 25//25 26//26 24//24 
f 25//25 27//27 28//28 26//26 
f 27//27 29//29 30//30 28//28 
f 29//29 31//31 32//32 30//30 
f 31//31 33//33 34//34 32//32 
f 33//33 35//35 36//36 34//34 
f 35//35 37//37 38//38 36//36 
f 37//37 39//39 40//40 38//38 
f 39//39 41//41 42//42 40//40 
f 41//41 43//43 44//44 42//42 
f 43//43 45//45 46//46 44//44 
f 45//45 47//47 48//48 46//46 
f 47//47 49//49 50//50 48//48 
f 49//49 51//51 52//52 50//50 
f 51//51 53//53 54//54 52//52 
f 53//53 55//55 56//56 54//54 
f 55//55 57//57 58//58 56//56 
f 57//57 59//59 60//60 58//58 
f 59//59 61//61 62//62 60//60 
f 61//61 63//63 64//64 62//62 
f 63//63 65//65 66//66 64//64 
f 65//65 67//67 68//68 66//66 
f 67//67 69//69 70//70 68//68 
f 69//69 71//71 72//72 70//70 
f 71//71 73//73 74//74 72//72 
f 73//73 75//75 76//76 74//74 
f 75//75 77//77 78//78 76//76 
f 77//77 79//79 80//80 78//78 
f 79//79 81//81 82//82 80//80 
f 81//81 83//83 84//84 82//82 
f 83//83 85//85 86//86 84//84 
f 85//85 87//87 88//88 86//86 
f 87//87 89//89 90//90 88//88 
f 89//89 91//91 92//92 90//90 
f 91//91 93//93 94//94 92//92 
f 93//93 95//95 96//96 94//94 
f 95//95 97//97 98//98 96//96 
f 97//97 99//99 100//100 98//98 
f 99//99 101//101 102//102 100//100 
f 101//101 103//103 104//104 102//102 
f 103//103 105//105 106//106 104//104 
f 105//105 107//107 108//108 106//106 
f 107//107 109//109 110//110 108//108 
f 109//109 111//111 112//112 110//110 
f 111//111 1//1 4//4 112//112 
f 2//2 7//7 5//5 
f 3//3 6//6 8//8 
f 8//8 10//10 3//3 
f 10//10 12//12 3//3 
f 12//12 14//14 3//3 
f 14//14 16//16 3//3 
f 16//16 18//18 3//3 
f 18//18 20//20 3//3 
f 20//20 22//22 3//3 
f 22//22 24//24 3//3 
f 24//24 26//26 3//3 
f 26//26 28//28 3//3 
f 28//28 30//30 3//3 
f 32//32 34//34 36//36 
f 3//3 30//30 32//32 
f 112//112 4//4 3//3 
f 3//3 110//110 112//112 
f 3//3 32//32 36//36 
f 36//36 110//110 3//3 
f 36//36 38//38 110//110 
f 38//38 40//40 110//110 
f 40//40 42//42 110//110 
f 42//42 44//44 110//110 
f 44//44 46//46 110//110 
f 46//46 48//48 110//110 
f 48//48 50//50 110//110 
f 50//50 52//52 110//110 
f 52//52 54//54 110//110 
f 54//54 56//56 110//110 
f 56//56 58//58 110//110 
f 58//58 60//60 110//110 
f 60//60 62//62 110//110 
f 62//62 64//64 110//110 
f 64//64 66//66 110//110 
f 66//66 68//68 110//110 
f 68//68 70//70 110//110 
f 70//70 72//72 110//110 
f 72//72 74//74 110//110 
f 74//74 76//76 110//110 
f 78//78 80//80 82//82 
f 110//110 76//76 78//78 
f 106//106 108//108 110//110 
f 110//110 78//78 82//82 
f 82//82 106//106 110//110 
f 82//82 104//104 106//106 
f 82//82 84//84 104//104 
f 84//84 102//102 104//104 
f 84//84 86//86 102//102 
f 86//86 100//100 102//102 
f 86//86 88//88 100//100 
f 88//88 98//98 100//100 
f 88//88 90//90 98//98 
f 90//90 96//96 98//98 
f 90//90 92//92 96//96 
f 92//92 94//94 96//96 
f 2//2 9//9 7//7 
f 2//2 11//11 9//9 
f 2//2 13//13 11//11 
f 2//2 15//15 13//13 
f 2//2 17//17 15//15 
f 2//2 19//19 17//17 
f 2//2 21//21 19//19 
f 2//2 23//23 21//21 
f 2//2 25//25 23//23 
f 2//2 27//27 25//25 
f 2//2 29//29 27//27 
f 35//35 33//33 31//31 
f 31//31 29//29 2//2 
f 2//2 1//1 111//111 
f 111//111 109//109 2//2 
f 35//35 31//31 2//2 
f 2//2 109//109 35//35 
f 109//109 37//37 35//35 
f 109//109 39//39 37//37 
f 109//109 41//41 39//39 
f 109//109 43//43 41//41 
f 109//109 45//45 43//43 
f 109//109 47//47 45//45 
f 109//109 49//49 47//47 
f 109//109 51//51 49//49 
f 109//109 53//53 51//51 
f 109//109 55//55 53//53 
f 109//109 57//57 55//55 
f 109//109 59//59 57//57 
f 109//109 61//61 59//59 
f 109//109 63//63 61//61 
f 109//109 65//65 63//63 
f 109//109 67//67 65//65 
f 109//109 69//69 67//67 
f 109//109 71//71 69//69 
f 109//109 73//73 71//71 
f 109//109 75//75 73//73 
f 81//81 79//79 77//77 
f 77//77 75//75 109//109 
f 109//109 107//107 105//105 
f 81//81 77//77 109//109 
f 109//109 105//105 81//81 
f 105//105 103//103 81//81 
f 103//103 83//83 81//81 
f 103//103 101//101 83//83 
f 101//101 85//85 83//83 
f 101//101 99//99 85//85 
f 99//99 87//87 85//85 
f 99//99 97//97 87//87 
f 97//97 89//89 87//87 
f 97//97 95//95 89//89 
f 95//95 91//91 89//89 
f 95//95 93//93 91//91 
# 56 polygons - 108 triangles

